<svg width="1824" height="233" viewBox="0 0 1824 233" fill="none" xmlns="http://www.w3.org/2000/svg">
<rect y="98.3965" width="25.6313" height="119.286" fill="#5F29FF"/>
<rect x="44.6797" y="98.3965" width="25.6313" height="119.286" fill="#5F29FF"/>
<rect x="93.1738" y="16.2539" width="25.6313" height="201.43" fill="#5F29FF"/>
<rect x="137.854" y="16.2539" width="25.6313" height="201.43" fill="#5F29FF"/>
<rect x="186.346" y="16.2539" width="25.6313" height="201.43" fill="#5F29FF"/>
<path d="M402.354 181.037H312.072V15.0996H269.604V218.021H402.354V181.037ZM482.454 90.8965C501.579 90.8965 513.954 103.693 514.797 124.225H448.704C450.11 104.115 463.469 90.8965 482.454 90.8965ZM515.641 173.865C511.282 184.131 500.172 189.896 484 189.896C462.625 189.896 449.125 175.553 448.563 152.49V150.381H555.016V137.865C555.016 88.6465 528.016 59.5371 482.313 59.5371C436.188 59.5371 407.782 90.7559 407.782 141.24C407.782 191.584 435.625 221.396 482.875 221.396C520.844 221.396 547.704 202.975 553.75 173.865H515.641ZM630.194 189.615C615.991 189.615 606.007 182.584 606.007 171.053C606.007 159.943 614.585 153.615 632.163 152.35L663.522 150.381V161.771C663.522 177.521 649.179 189.615 630.194 189.615ZM616.694 220.412C636.804 220.412 653.679 211.975 661.694 197.771H664.225V218.021H703.882V112.131C703.882 78.9434 680.679 59.5371 639.616 59.5371C600.663 59.5371 574.366 77.5371 571.694 106.225H609.382C612.757 96.9434 622.6 91.8809 637.366 91.8809C654.241 91.8809 663.522 99.1934 663.522 112.131V124.787L625.975 127.037C587.444 129.287 565.929 145.6 565.929 173.725C565.929 202.131 586.882 220.412 616.694 220.412ZM726.185 108.475C726.185 132.381 740.81 146.725 770.904 153.334L799.029 159.662C812.669 162.615 818.575 167.256 818.575 174.85C818.575 184.834 807.607 191.443 791.716 191.443C775.404 191.443 765.419 185.396 762.325 174.85H722.388C725.2 204.662 749.95 221.396 790.872 221.396C831.513 221.396 859.216 201.146 859.216 170.209C859.216 147.006 845.716 134.35 815.622 127.74L786.513 121.412C772.169 118.178 765.56 113.537 765.56 105.943C765.56 96.0996 776.388 89.4902 791.013 89.4902C806.2 89.4902 815.622 95.6777 817.732 105.662H855.56C853.31 75.9902 830.107 59.5371 790.732 59.5371C752.06 59.5371 726.185 79.084 726.185 108.475ZM945.504 90.8965C964.629 90.8965 977.004 103.693 977.847 124.225H911.754C913.16 104.115 926.519 90.8965 945.504 90.8965ZM978.691 173.865C974.332 184.131 963.222 189.896 947.05 189.896C925.675 189.896 912.175 175.553 911.613 152.49V150.381H1018.07V137.865C1018.07 88.6465 991.066 59.5371 945.363 59.5371C899.238 59.5371 870.832 90.7559 870.832 141.24C870.832 191.584 898.675 221.396 945.925 221.396C983.894 221.396 1010.75 202.975 1016.8 173.865H978.691ZM1049.23 218.021H1090.15V96.6621H1122.21V64.459H1089.31V51.6621C1089.31 38.4434 1095.21 32.1152 1111.24 32.1152C1116.59 32.1152 1120.81 32.5371 1123.48 32.8184V3.84961C1117.57 2.86523 1110.68 2.30273 1102.38 2.30273C1064.98 2.30273 1049.23 17.9121 1049.23 48.709V64.459H1024.2V96.6621H1049.23V218.021ZM1140.44 218.021H1181.36V132.1C1181.36 110.303 1196.69 97.084 1219.05 97.084C1225.66 97.084 1235.22 98.3496 1238.45 99.6152V62.3496C1234.94 61.084 1228.05 60.3809 1222.42 60.3809C1202.73 60.3809 1186.7 72.1934 1182.63 87.6621H1180.09V62.9121H1140.44V218.021ZM1316.58 221.396C1364.26 221.396 1392.94 191.162 1392.94 140.396C1392.94 90.0527 1363.83 59.5371 1316.58 59.5371C1269.33 59.5371 1240.23 90.1934 1240.23 140.396C1240.23 191.162 1268.91 221.396 1316.58 221.396ZM1316.58 187.928C1294.65 187.928 1282.27 170.631 1282.27 140.396C1282.27 110.584 1294.79 93.0059 1316.58 93.0059C1338.24 93.0059 1350.9 110.584 1350.9 140.396C1350.9 170.49 1338.38 187.928 1316.58 187.928ZM1412.01 218.021H1452.93V128.584C1452.93 108.193 1464.61 94.834 1483.59 94.834C1503 94.834 1512.14 106.084 1512.14 127.459V218.021H1553.06V117.756C1553.06 80.6309 1534.5 59.5371 1500.04 59.5371C1477.12 59.5371 1461.37 70.3652 1454.2 87.8027H1451.67V62.9121H1412.01V218.021ZM1590.13 26.0684V64.459H1565.94V96.6621H1590.13V176.115C1590.13 206.35 1605.03 218.584 1642.72 218.584C1650.6 218.584 1658.19 217.74 1663.25 216.756V185.537C1659.32 185.959 1656.5 186.1 1651.16 186.1C1637.24 186.1 1631.05 179.912 1631.05 166.412V96.6621H1663.25V64.459H1631.05V26.0684H1590.13Z" fill="#2A2A2A"/>
</svg>
