<svg width="1851" height="233" viewBox="0 0 1851 233" fill="none" xmlns="http://www.w3.org/2000/svg">
<rect y="89.9551" width="27.4451" height="127.728" fill="#5F29FF"/>
<rect x="47.8418" y="89.9551" width="27.4451" height="127.728" fill="#5F29FF"/>
<rect x="99.7676" y="2" width="27.4451" height="215.684" fill="#5F29FF"/>
<rect x="147.609" y="2" width="27.4451" height="215.684" fill="#5F29FF"/>
<rect x="199.531" y="2" width="27.4451" height="215.684" fill="#5F29FF"/>
<path d="M293.938 218.021H334.859V3.70898H293.938V218.021ZM444.547 90.8965C463.672 90.8965 476.047 103.693 476.891 124.225H410.797C412.203 104.115 425.562 90.8965 444.547 90.8965ZM477.734 173.865C473.375 184.131 462.266 189.896 446.094 189.896C424.719 189.896 411.219 175.553 410.656 152.49V150.381H517.109V137.865C517.109 88.6465 490.109 59.5371 444.406 59.5371C398.281 59.5371 369.875 90.7559 369.875 141.24C369.875 191.584 397.719 221.396 444.969 221.396C482.938 221.396 509.797 202.975 515.844 173.865H477.734ZM606.688 189.615C592.484 189.615 582.5 182.584 582.5 171.053C582.5 159.943 591.078 153.615 608.656 152.35L640.016 150.381V161.771C640.016 177.521 625.672 189.615 606.688 189.615ZM593.188 220.412C613.297 220.412 630.172 211.975 638.188 197.771H640.719V218.021H680.375V112.131C680.375 78.9434 657.172 59.5371 616.109 59.5371C577.156 59.5371 550.859 77.5371 548.188 106.225H585.875C589.25 96.9434 599.094 91.8809 613.859 91.8809C630.734 91.8809 640.016 99.1934 640.016 112.131V124.787L602.469 127.037C563.938 129.287 542.422 145.6 542.422 173.725C542.422 202.131 563.375 220.412 593.188 220.412ZM717.078 108.475C717.078 132.381 731.703 146.725 761.797 153.334L789.922 159.662C803.562 162.615 809.469 167.256 809.469 174.85C809.469 184.834 798.5 191.443 782.609 191.443C766.297 191.443 756.312 185.396 753.219 174.85H713.281C716.094 204.662 740.844 221.396 781.766 221.396C822.406 221.396 850.109 201.146 850.109 170.209C850.109 147.006 836.609 134.35 806.516 127.74L777.406 121.412C763.062 118.178 756.453 113.537 756.453 105.943C756.453 96.0996 767.281 89.4902 781.906 89.4902C797.094 89.4902 806.516 95.6777 808.625 105.662H846.453C844.203 75.9902 821 59.5371 781.625 59.5371C742.953 59.5371 717.078 79.084 717.078 108.475ZM950.797 90.8965C969.922 90.8965 982.297 103.693 983.141 124.225H917.047C918.453 104.115 931.812 90.8965 950.797 90.8965ZM983.984 173.865C979.625 184.131 968.516 189.896 952.344 189.896C930.969 189.896 917.469 175.553 916.906 152.49V150.381H1023.36V137.865C1023.36 88.6465 996.359 59.5371 950.656 59.5371C904.531 59.5371 876.125 90.7559 876.125 141.24C876.125 191.584 903.969 221.396 951.219 221.396C989.188 221.396 1016.05 202.975 1022.09 173.865H983.984ZM1068.92 218.021H1109.84V96.6621H1141.91V64.459H1109V51.6621C1109 38.4434 1114.91 32.1152 1130.94 32.1152C1136.28 32.1152 1140.5 32.5371 1143.17 32.8184V3.84961C1137.27 2.86523 1130.38 2.30273 1122.08 2.30273C1084.67 2.30273 1068.92 17.9121 1068.92 48.709V64.459H1043.89V96.6621H1068.92V218.021ZM1174.53 218.021H1215.45V132.1C1215.45 110.303 1230.78 97.084 1253.14 97.084C1259.75 97.084 1269.31 98.3496 1272.55 99.6152V62.3496C1269.03 61.084 1262.14 60.3809 1256.52 60.3809C1236.83 60.3809 1220.8 72.1934 1216.72 87.6621H1214.19V62.9121H1174.53V218.021ZM1365.08 221.396C1412.75 221.396 1441.44 191.162 1441.44 140.396C1441.44 90.0527 1412.33 59.5371 1365.08 59.5371C1317.83 59.5371 1288.72 90.1934 1288.72 140.396C1288.72 191.162 1317.41 221.396 1365.08 221.396ZM1365.08 187.928C1343.14 187.928 1330.77 170.631 1330.77 140.396C1330.77 110.584 1343.28 93.0059 1365.08 93.0059C1386.73 93.0059 1399.39 110.584 1399.39 140.396C1399.39 170.49 1386.88 187.928 1365.08 187.928ZM1474.91 218.021H1515.83V128.584C1515.83 108.193 1527.5 94.834 1546.48 94.834C1565.89 94.834 1575.03 106.084 1575.03 127.459V218.021H1615.95V117.756C1615.95 80.6309 1597.39 59.5371 1562.94 59.5371C1540.02 59.5371 1524.27 70.3652 1517.09 87.8027H1514.56V62.9121H1474.91V218.021ZM1667.42 26.0684V64.459H1643.23V96.6621H1667.42V176.115C1667.42 206.35 1682.33 218.584 1720.02 218.584C1727.89 218.584 1735.48 217.74 1740.55 216.756V185.537C1736.61 185.959 1733.8 186.1 1728.45 186.1C1714.53 186.1 1708.34 179.912 1708.34 166.412V96.6621H1740.55V64.459H1708.34V26.0684H1667.42Z" fill="#2A2A2A"/>
</svg>
