<svg width="1861" height="228" viewBox="0 0 1861 228" fill="none" xmlns="http://www.w3.org/2000/svg">
<rect y="95.2051" width="28.3793" height="128.09" fill="#5F29FF"/>
<rect x="49.4707" y="95.2051" width="28.3793" height="128.09" fill="#5F29FF"/>
<rect x="103.164" y="7" width="28.3793" height="216.296" fill="#5F29FF"/>
<rect x="152.635" y="7" width="28.3793" height="216.296" fill="#5F29FF"/>
<rect x="206.322" y="7" width="28.3793" height="216.296" fill="#5F29FF"/>
<path d="M337.749 10.5454H300.726V220H337.749V10.5454ZM439.605 223.068C476.219 223.068 501.378 205.17 507.923 177.864L473.355 173.977C468.344 187.273 456.071 194.227 440.116 194.227C416.185 194.227 400.332 178.477 400.026 151.58H509.457V140.227C509.457 85.1023 476.321 60.8636 437.662 60.8636C392.662 60.8636 363.31 93.8977 363.31 142.375C363.31 191.67 392.253 223.068 439.605 223.068ZM400.128 126.625C401.253 106.58 416.082 89.7045 438.173 89.7045C459.446 89.7045 473.764 105.25 473.969 126.625H400.128ZM580.223 223.17C604.871 223.17 619.598 211.614 626.348 198.42H627.575V220H663.166V114.864C663.166 73.3409 629.109 60.8636 599.859 60.8636C566.109 60.8636 540.95 75.5909 532.768 104.227L567.337 109.136C571.018 98.3977 581.45 89.1932 599.552 89.1932C616.939 89.1932 626.041 98.0909 626.143 113.636C626.246 123.966 615.712 125.091 590.041 127.852C589.121 127.955 588.2 128.057 587.28 128.159C556.802 131.432 527.655 140.534 527.655 175.92C527.655 206.807 550.257 223.17 580.223 223.17ZM589.837 195.966C574.393 195.966 563.348 188.909 563.348 175.307C563.348 161.091 575.723 155.159 592.291 152.807C602.007 151.477 621.439 149.023 626.246 145.136V163.648C626.246 181.136 612.132 195.966 589.837 195.966ZM818.792 104.432C813.679 77.8409 792.406 60.8636 755.588 60.8636C717.747 60.8636 691.974 79.4773 692.077 108.523C691.974 131.432 706.088 146.568 736.258 152.807L763.054 158.432C777.474 161.602 784.224 167.432 784.224 176.33C784.224 187.068 772.565 195.148 754.974 195.148C737.997 195.148 726.952 187.784 723.781 173.67L687.679 177.148C692.281 205.989 716.52 223.068 755.077 223.068C794.349 223.068 822.065 202.716 822.167 172.955C822.065 150.557 807.645 136.852 777.986 130.409L751.19 124.682C735.236 121.102 728.895 115.58 728.997 106.477C728.895 95.8409 740.656 88.4773 756.099 88.4773C773.179 88.4773 782.179 97.7841 785.042 108.114L818.792 104.432ZM916.481 223.068C953.095 223.068 978.254 205.17 984.8 177.864L950.231 173.977C945.22 187.273 932.947 194.227 916.993 194.227C893.061 194.227 877.209 178.477 876.902 151.58H986.334V140.227C986.334 85.1023 953.197 60.8636 914.538 60.8636C869.538 60.8636 840.186 93.8977 840.186 142.375C840.186 191.67 869.129 223.068 916.481 223.068ZM877.004 126.625C878.129 106.58 892.959 89.7045 915.05 89.7045C936.322 89.7045 950.64 105.25 950.845 126.625H877.004ZM1092.49 62.9091H1059.86V50.5341C1059.86 38.2614 1064.97 31.4091 1078.78 31.4091C1084.61 31.4091 1089.52 32.7386 1092.59 33.6591L1100.05 5.02272C1095.25 3.38636 1084.71 0.727259 1071.93 0.727259C1044.62 0.727259 1022.84 16.375 1022.84 48.0795V62.9091H999.622V91.5454H1022.84V220H1059.86V91.5454H1092.49V62.9091ZM1115.82 220H1152.84V127.648C1152.84 107.807 1167.78 93.7954 1187.11 93.7954C1193.14 93.7954 1197.74 95.2273 1201.73 97.0682L1213.19 66.3864C1207.66 62.9091 1200.61 60.6591 1192.12 60.6591C1174.02 60.6591 1159.08 70.8864 1153.36 89.0909H1151.72V62.9091H1115.82V220ZM1291.37 223.068C1337.39 223.068 1366.64 190.648 1366.64 142.068C1366.64 93.3864 1337.39 60.8636 1291.37 60.8636C1245.34 60.8636 1216.09 93.3864 1216.09 142.068C1216.09 190.648 1245.34 223.068 1291.37 223.068ZM1291.57 193.409C1266.1 193.409 1253.63 170.705 1253.63 141.966C1253.63 113.227 1266.1 90.2159 1291.57 90.2159C1316.63 90.2159 1329.1 113.227 1329.1 141.966C1329.1 170.705 1316.63 193.409 1291.57 193.409ZM1429.32 127.955C1429.32 105.25 1443.03 92.1591 1462.56 92.1591C1481.69 92.1591 1493.14 104.739 1493.14 125.705V220H1530.17V119.977C1530.27 82.3409 1508.79 60.8636 1476.37 60.8636C1452.85 60.8636 1436.69 72.1136 1429.53 89.6023H1427.69V62.9091H1392.3V220H1429.32V127.955ZM1640.49 62.9091H1609.5V25.2727H1572.47V62.9091H1550.18V91.5454H1572.47V178.58C1572.27 208.239 1593.75 222.761 1621.56 221.841C1632.1 221.636 1639.36 219.591 1643.35 218.159L1637.11 189.318C1635.06 189.727 1630.87 190.75 1626.27 190.75C1616.96 190.75 1609.39 187.375 1609.5 172.545V91.5454H1640.49V62.9091Z" fill="#212121"/>
</svg>
