<svg width="1861" height="225" viewBox="0 0 1861 225" fill="none" xmlns="http://www.w3.org/2000/svg">
<rect y="92.2051" width="28.3793" height="128.09" fill="#5F29FF"/>
<rect x="49.4707" y="92.2051" width="28.3793" height="128.09" fill="#5F29FF"/>
<rect x="103.164" y="4" width="28.3793" height="216.296" fill="#5F29FF"/>
<rect x="152.635" y="4" width="28.3793" height="216.296" fill="#5F29FF"/>
<rect x="206.322" y="4" width="28.3793" height="216.296" fill="#5F29FF"/>
<path d="M474.487 7.54545H436.749V150.318H434.908L336.317 7.54545H302.362V217H340.305V74.3295H342.044L440.737 217H474.487V7.54545ZM553.639 220.17C578.287 220.17 593.014 208.614 599.764 195.42H600.991V217H636.582V111.864C636.582 70.3409 602.526 57.8636 573.276 57.8636C539.526 57.8636 514.366 72.5909 506.185 101.227L540.753 106.136C544.435 95.3977 554.866 86.1932 572.969 86.1932C590.355 86.1932 599.457 95.0909 599.56 110.636C599.662 120.966 589.128 122.091 563.457 124.852C562.537 124.955 561.616 125.057 560.696 125.159C530.219 128.432 501.071 137.534 501.071 172.92C501.071 203.807 523.673 220.17 553.639 220.17ZM563.253 192.966C547.81 192.966 536.764 185.909 536.764 172.307C536.764 158.091 549.139 152.159 565.707 149.807C575.423 148.477 594.855 146.023 599.662 142.136V160.648C599.662 178.136 585.548 192.966 563.253 192.966ZM668.05 217H705.072V121.477C705.072 102.148 717.959 89.0568 733.913 89.0568C749.561 89.0568 760.3 99.5909 760.3 115.75V217H796.606V119.023C796.606 101.33 807.141 89.0568 825.038 89.0568C839.97 89.0568 851.834 97.8523 851.834 117.284V217H888.959V111.557C888.959 76.4773 868.709 57.8636 839.868 57.8636C817.061 57.8636 799.675 69.1136 792.72 86.6023H791.084C785.05 68.8068 769.811 57.8636 748.641 57.8636C727.572 57.8636 711.822 68.7045 705.277 86.6023H703.436V59.9091H668.05V217ZM990.304 220.068C1026.92 220.068 1052.08 202.17 1058.62 174.864L1024.05 170.977C1019.04 184.273 1006.77 191.227 990.815 191.227C966.883 191.227 951.031 175.477 950.724 148.58H1060.16V137.227C1060.16 82.1023 1027.02 57.8636 988.361 57.8636C943.361 57.8636 914.008 90.8977 914.008 139.375C914.008 188.67 942.952 220.068 990.304 220.068ZM950.827 123.625C951.952 103.58 966.781 86.7045 988.872 86.7045C1010.14 86.7045 1024.46 102.25 1024.67 123.625H950.827Z" fill="#212121"/>
</svg>
