<svg width="249" height="39" viewBox="0 0 249 39" fill="none" xmlns="http://www.w3.org/2000/svg">
<path d="M52.7216 30H55.8835V24.1023H59.2244C63.2557 24.1023 65.429 21.6733 65.4205 18.3239C65.429 14.983 63.2812 12.5455 59.267 12.5455H52.7216V30ZM55.8835 21.5028V15.1875H58.7812C61.1506 15.1875 62.2074 16.483 62.1989 18.3239C62.2074 20.1989 61.1506 21.5028 58.7983 21.5028H55.8835ZM70.1669 30H73.3288V23.4375H76.6186L80.0703 30H83.5987L79.8146 22.9091C81.8345 22.0483 82.951 20.2926 82.951 18.0256C82.951 14.7017 80.7266 12.5455 76.8999 12.5455H70.1669V30ZM73.3288 20.9574V15.1875H76.6783C78.6214 15.1875 79.7124 16.2784 79.7124 18.0852C79.7124 19.858 78.6641 20.9574 76.5334 20.9574H73.3288ZM103.467 21.2727C103.467 15.6307 100.023 12.3068 95.4467 12.3068C90.8615 12.3068 87.4268 15.6307 87.4268 21.2727C87.4268 26.9062 90.8615 30.2386 95.4467 30.2386C100.023 30.2386 103.467 26.9148 103.467 21.2727ZM100.288 21.2727C100.288 25.2443 98.2933 27.4006 95.4467 27.4006C92.6087 27.4006 90.6058 25.2443 90.6058 21.2727C90.6058 17.3011 92.6087 15.1449 95.4467 15.1449C98.2933 15.1449 100.288 17.3011 100.288 21.2727ZM108.456 30H111.618V24.1023H114.959C118.99 24.1023 121.163 21.6733 121.155 18.3239C121.163 14.983 119.016 12.5455 115.001 12.5455H108.456V30ZM111.618 21.5028V15.1875H114.516C116.885 15.1875 117.942 16.483 117.933 18.3239C117.942 20.1989 116.885 21.5028 114.533 21.5028H111.618ZM125.901 30H137.322V27.3494H129.063V22.5852H136.665V19.9347H129.063V15.196H137.254V12.5455H125.901V30ZM142.479 30H145.641V23.4375H148.931L152.383 30H155.911L152.127 22.9091C154.147 22.0483 155.263 20.2926 155.263 18.0256C155.263 14.7017 153.039 12.5455 149.212 12.5455H142.479V30ZM145.641 20.9574V15.1875H148.991C150.934 15.1875 152.025 16.2784 152.025 18.0852C152.025 19.858 150.977 20.9574 148.846 20.9574H145.641ZM159.415 15.196H164.81V30H167.947V15.196H173.342V12.5455H159.415V15.196ZM178.026 30H189.447V27.3494H181.188V22.5852H188.79V19.9347H181.188V15.196H189.379V12.5455H178.026V30ZM196.846 30L198.286 25.696H204.849L206.298 30H209.673L203.519 12.5455H199.616L193.471 30H196.846ZM199.138 23.1562L201.499 16.125H201.636L203.996 23.1562H199.138ZM213.648 30H226.568V27.3494H217.577L226.517 14.5142V12.5455H213.597V15.196H222.597L213.648 28.0312V30ZM230.46 12.5455L236.81 23.4886V30H239.955V23.4886L246.304 12.5455H242.741L238.472 20.267H238.293L234.023 12.5455H230.46Z" fill="#16171A"/>
<rect y="15.7843" width="5.07843" height="22.9216" fill="#5F29FF"/>
<rect x="8.85303" y="15.7843" width="5.07843" height="22.9216" fill="#5F29FF"/>
<rect x="18.4607" width="5.07843" height="38.7059" fill="#5F29FF"/>
<rect x="27.3137" width="5.07843" height="38.7059" fill="#5F29FF"/>
<rect x="36.9216" width="5.07843" height="38.7059" fill="#5F29FF"/>
</svg>
